<?xml version="1.0" encoding="utf-8" standalone="no"?>
<!DOCTYPE svg PUBLIC "-//W3C//DTD SVG 1.1//EN"
  "http://www.w3.org/Graphics/SVG/1.1/DTD/svg11.dtd">
<svg xmlns:xlink="http://www.w3.org/1999/xlink" width="460.8pt" height="345.6pt" viewBox="0 0 460.8 345.6" xmlns="http://www.w3.org/2000/svg" version="1.1">
 <metadata>
  <rdf:RDF xmlns:dc="http://purl.org/dc/elements/1.1/" xmlns:cc="http://creativecommons.org/ns#" xmlns:rdf="http://www.w3.org/1999/02/22-rdf-syntax-ns#">
   <cc:Work>
    <dc:type rdf:resource="http://purl.org/dc/dcmitype/StillImage"/>
    <dc:date>2024-02-22T09:42:44.728328</dc:date>
    <dc:format>image/svg+xml</dc:format>
    <dc:creator>
     <cc:Agent>
      <dc:title>Matplotlib v3.8.2, https://matplotlib.org/</dc:title>
     </cc:Agent>
    </dc:creator>
   </cc:Work>
  </rdf:RDF>
 </metadata>
 <defs>
  <style type="text/css">*{stroke-linejoin: round; stroke-linecap: butt}</style>
 </defs>
 <g id="figure_1">
  <g id="patch_1">
   <path d="M 0 345.6 
L 460.8 345.6 
L 460.8 0 
L 0 0 
z
" style="fill: #ffffff"/>
  </g>
  <g id="axes_1">
   <g id="patch_2">
    <path d="M 57.6 307.584 
L 414.72 307.584 
L 414.72 41.472 
L 57.6 41.472 
z
" style="fill: #ffffff"/>
   </g>
   <g id="matplotlib.axis_1">
    <g id="xtick_1">
     <g id="line2d_1">
      <defs>
       <path id="mf5ec14707d" d="M 0 0 
L 0 3.5 
" style="stroke: #000000; stroke-width: 0.8"/>
      </defs>
      <g>
       <use xlink:href="#mf5ec14707d" x="73.830866" y="307.584" style="stroke: #000000; stroke-width: 0.8"/>
      </g>
     </g>
     <g id="text_1">
      <!-- 0.000 -->
      <g transform="translate(59.516804 322.182437) scale(0.1 -0.1)">
       <defs>
        <path id="DejaVuSans-30" d="M 2034 4250 
Q 1547 4250 1301 3770 
Q 1056 3291 1056 2328 
Q 1056 1369 1301 889 
Q 1547 409 2034 409 
Q 2525 409 2770 889 
Q 3016 1369 3016 2328 
Q 3016 3291 2770 3770 
Q 2525 4250 2034 4250 
z
M 2034 4750 
Q 2819 4750 3233 4129 
Q 3647 3509 3647 2328 
Q 3647 1150 3233 529 
Q 2819 -91 2034 -91 
Q 1250 -91 836 529 
Q 422 1150 422 2328 
Q 422 3509 836 4129 
Q 1250 4750 2034 4750 
z
" transform="scale(0.015625)"/>
        <path id="DejaVuSans-2e" d="M 684 794 
L 1344 794 
L 1344 0 
L 684 0 
L 684 794 
z
" transform="scale(0.015625)"/>
       </defs>
       <use xlink:href="#DejaVuSans-30"/>
       <use xlink:href="#DejaVuSans-2e" x="63.623047"/>
       <use xlink:href="#DejaVuSans-30" x="95.410156"/>
       <use xlink:href="#DejaVuSans-30" x="159.033203"/>
       <use xlink:href="#DejaVuSans-30" x="222.65625"/>
      </g>
     </g>
    </g>
    <g id="xtick_2">
     <g id="line2d_2">
      <g>
       <use xlink:href="#mf5ec14707d" x="130.51147" y="307.584" style="stroke: #000000; stroke-width: 0.8"/>
      </g>
     </g>
     <g id="text_2">
      <!-- 0.002 -->
      <g transform="translate(116.197407 322.182437) scale(0.1 -0.1)">
       <defs>
        <path id="DejaVuSans-32" d="M 1228 531 
L 3431 531 
L 3431 0 
L 469 0 
L 469 531 
Q 828 903 1448 1529 
Q 2069 2156 2228 2338 
Q 2531 2678 2651 2914 
Q 2772 3150 2772 3378 
Q 2772 3750 2511 3984 
Q 2250 4219 1831 4219 
Q 1534 4219 1204 4116 
Q 875 4013 500 3803 
L 500 4441 
Q 881 4594 1212 4672 
Q 1544 4750 1819 4750 
Q 2544 4750 2975 4387 
Q 3406 4025 3406 3419 
Q 3406 3131 3298 2873 
Q 3191 2616 2906 2266 
Q 2828 2175 2409 1742 
Q 1991 1309 1228 531 
z
" transform="scale(0.015625)"/>
       </defs>
       <use xlink:href="#DejaVuSans-30"/>
       <use xlink:href="#DejaVuSans-2e" x="63.623047"/>
       <use xlink:href="#DejaVuSans-30" x="95.410156"/>
       <use xlink:href="#DejaVuSans-30" x="159.033203"/>
       <use xlink:href="#DejaVuSans-32" x="222.65625"/>
      </g>
     </g>
    </g>
    <g id="xtick_3">
     <g id="line2d_3">
      <g>
       <use xlink:href="#mf5ec14707d" x="187.192073" y="307.584" style="stroke: #000000; stroke-width: 0.8"/>
      </g>
     </g>
     <g id="text_3">
      <!-- 0.004 -->
      <g transform="translate(172.878011 322.182437) scale(0.1 -0.1)">
       <defs>
        <path id="DejaVuSans-34" d="M 2419 4116 
L 825 1625 
L 2419 1625 
L 2419 4116 
z
M 2253 4666 
L 3047 4666 
L 3047 1625 
L 3713 1625 
L 3713 1100 
L 3047 1100 
L 3047 0 
L 2419 0 
L 2419 1100 
L 313 1100 
L 313 1709 
L 2253 4666 
z
" transform="scale(0.015625)"/>
       </defs>
       <use xlink:href="#DejaVuSans-30"/>
       <use xlink:href="#DejaVuSans-2e" x="63.623047"/>
       <use xlink:href="#DejaVuSans-30" x="95.410156"/>
       <use xlink:href="#DejaVuSans-30" x="159.033203"/>
       <use xlink:href="#DejaVuSans-34" x="222.65625"/>
      </g>
     </g>
    </g>
    <g id="xtick_4">
     <g id="line2d_4">
      <g>
       <use xlink:href="#mf5ec14707d" x="243.872677" y="307.584" style="stroke: #000000; stroke-width: 0.8"/>
      </g>
     </g>
     <g id="text_4">
      <!-- 0.006 -->
      <g transform="translate(229.558614 322.182437) scale(0.1 -0.1)">
       <defs>
        <path id="DejaVuSans-36" d="M 2113 2584 
Q 1688 2584 1439 2293 
Q 1191 2003 1191 1497 
Q 1191 994 1439 701 
Q 1688 409 2113 409 
Q 2538 409 2786 701 
Q 3034 994 3034 1497 
Q 3034 2003 2786 2293 
Q 2538 2584 2113 2584 
z
M 3366 4563 
L 3366 3988 
Q 3128 4100 2886 4159 
Q 2644 4219 2406 4219 
Q 1781 4219 1451 3797 
Q 1122 3375 1075 2522 
Q 1259 2794 1537 2939 
Q 1816 3084 2150 3084 
Q 2853 3084 3261 2657 
Q 3669 2231 3669 1497 
Q 3669 778 3244 343 
Q 2819 -91 2113 -91 
Q 1303 -91 875 529 
Q 447 1150 447 2328 
Q 447 3434 972 4092 
Q 1497 4750 2381 4750 
Q 2619 4750 2861 4703 
Q 3103 4656 3366 4563 
z
" transform="scale(0.015625)"/>
       </defs>
       <use xlink:href="#DejaVuSans-30"/>
       <use xlink:href="#DejaVuSans-2e" x="63.623047"/>
       <use xlink:href="#DejaVuSans-30" x="95.410156"/>
       <use xlink:href="#DejaVuSans-30" x="159.033203"/>
       <use xlink:href="#DejaVuSans-36" x="222.65625"/>
      </g>
     </g>
    </g>
    <g id="xtick_5">
     <g id="line2d_5">
      <g>
       <use xlink:href="#mf5ec14707d" x="300.55328" y="307.584" style="stroke: #000000; stroke-width: 0.8"/>
      </g>
     </g>
     <g id="text_5">
      <!-- 0.008 -->
      <g transform="translate(286.239218 322.182437) scale(0.1 -0.1)">
       <defs>
        <path id="DejaVuSans-38" d="M 2034 2216 
Q 1584 2216 1326 1975 
Q 1069 1734 1069 1313 
Q 1069 891 1326 650 
Q 1584 409 2034 409 
Q 2484 409 2743 651 
Q 3003 894 3003 1313 
Q 3003 1734 2745 1975 
Q 2488 2216 2034 2216 
z
M 1403 2484 
Q 997 2584 770 2862 
Q 544 3141 544 3541 
Q 544 4100 942 4425 
Q 1341 4750 2034 4750 
Q 2731 4750 3128 4425 
Q 3525 4100 3525 3541 
Q 3525 3141 3298 2862 
Q 3072 2584 2669 2484 
Q 3125 2378 3379 2068 
Q 3634 1759 3634 1313 
Q 3634 634 3220 271 
Q 2806 -91 2034 -91 
Q 1263 -91 848 271 
Q 434 634 434 1313 
Q 434 1759 690 2068 
Q 947 2378 1403 2484 
z
M 1172 3481 
Q 1172 3119 1398 2916 
Q 1625 2713 2034 2713 
Q 2441 2713 2670 2916 
Q 2900 3119 2900 3481 
Q 2900 3844 2670 4047 
Q 2441 4250 2034 4250 
Q 1625 4250 1398 4047 
Q 1172 3844 1172 3481 
z
" transform="scale(0.015625)"/>
       </defs>
       <use xlink:href="#DejaVuSans-30"/>
       <use xlink:href="#DejaVuSans-2e" x="63.623047"/>
       <use xlink:href="#DejaVuSans-30" x="95.410156"/>
       <use xlink:href="#DejaVuSans-30" x="159.033203"/>
       <use xlink:href="#DejaVuSans-38" x="222.65625"/>
      </g>
     </g>
    </g>
    <g id="xtick_6">
     <g id="line2d_6">
      <g>
       <use xlink:href="#mf5ec14707d" x="357.233884" y="307.584" style="stroke: #000000; stroke-width: 0.8"/>
      </g>
     </g>
     <g id="text_6">
      <!-- 0.010 -->
      <g transform="translate(342.919821 322.182437) scale(0.1 -0.1)">
       <defs>
        <path id="DejaVuSans-31" d="M 794 531 
L 1825 531 
L 1825 4091 
L 703 3866 
L 703 4441 
L 1819 4666 
L 2450 4666 
L 2450 531 
L 3481 531 
L 3481 0 
L 794 0 
L 794 531 
z
" transform="scale(0.015625)"/>
       </defs>
       <use xlink:href="#DejaVuSans-30"/>
       <use xlink:href="#DejaVuSans-2e" x="63.623047"/>
       <use xlink:href="#DejaVuSans-30" x="95.410156"/>
       <use xlink:href="#DejaVuSans-31" x="159.033203"/>
       <use xlink:href="#DejaVuSans-30" x="222.65625"/>
      </g>
     </g>
    </g>
    <g id="xtick_7">
     <g id="line2d_7">
      <g>
       <use xlink:href="#mf5ec14707d" x="413.914487" y="307.584" style="stroke: #000000; stroke-width: 0.8"/>
      </g>
     </g>
     <g id="text_7">
      <!-- 0.012 -->
      <g transform="translate(399.600425 322.182437) scale(0.1 -0.1)">
       <use xlink:href="#DejaVuSans-30"/>
       <use xlink:href="#DejaVuSans-2e" x="63.623047"/>
       <use xlink:href="#DejaVuSans-30" x="95.410156"/>
       <use xlink:href="#DejaVuSans-31" x="159.033203"/>
       <use xlink:href="#DejaVuSans-32" x="222.65625"/>
      </g>
     </g>
    </g>
    <g id="text_8">
     <!-- Risk -->
     <g transform="translate(225.796719 335.860562) scale(0.1 -0.1)">
      <defs>
       <path id="DejaVuSans-52" d="M 2841 2188 
Q 3044 2119 3236 1894 
Q 3428 1669 3622 1275 
L 4263 0 
L 3584 0 
L 2988 1197 
Q 2756 1666 2539 1819 
Q 2322 1972 1947 1972 
L 1259 1972 
L 1259 0 
L 628 0 
L 628 4666 
L 2053 4666 
Q 2853 4666 3247 4331 
Q 3641 3997 3641 3322 
Q 3641 2881 3436 2590 
Q 3231 2300 2841 2188 
z
M 1259 4147 
L 1259 2491 
L 2053 2491 
Q 2509 2491 2742 2702 
Q 2975 2913 2975 3322 
Q 2975 3731 2742 3939 
Q 2509 4147 2053 4147 
L 1259 4147 
z
" transform="scale(0.015625)"/>
       <path id="DejaVuSans-69" d="M 603 3500 
L 1178 3500 
L 1178 0 
L 603 0 
L 603 3500 
z
M 603 4863 
L 1178 4863 
L 1178 4134 
L 603 4134 
L 603 4863 
z
" transform="scale(0.015625)"/>
       <path id="DejaVuSans-73" d="M 2834 3397 
L 2834 2853 
Q 2591 2978 2328 3040 
Q 2066 3103 1784 3103 
Q 1356 3103 1142 2972 
Q 928 2841 928 2578 
Q 928 2378 1081 2264 
Q 1234 2150 1697 2047 
L 1894 2003 
Q 2506 1872 2764 1633 
Q 3022 1394 3022 966 
Q 3022 478 2636 193 
Q 2250 -91 1575 -91 
Q 1294 -91 989 -36 
Q 684 19 347 128 
L 347 722 
Q 666 556 975 473 
Q 1284 391 1588 391 
Q 1994 391 2212 530 
Q 2431 669 2431 922 
Q 2431 1156 2273 1281 
Q 2116 1406 1581 1522 
L 1381 1569 
Q 847 1681 609 1914 
Q 372 2147 372 2553 
Q 372 3047 722 3315 
Q 1072 3584 1716 3584 
Q 2034 3584 2315 3537 
Q 2597 3491 2834 3397 
z
" transform="scale(0.015625)"/>
       <path id="DejaVuSans-6b" d="M 581 4863 
L 1159 4863 
L 1159 1991 
L 2875 3500 
L 3609 3500 
L 1753 1863 
L 3688 0 
L 2938 0 
L 1159 1709 
L 1159 0 
L 581 0 
L 581 4863 
z
" transform="scale(0.015625)"/>
      </defs>
      <use xlink:href="#DejaVuSans-52"/>
      <use xlink:href="#DejaVuSans-69" x="69.482422"/>
      <use xlink:href="#DejaVuSans-73" x="97.265625"/>
      <use xlink:href="#DejaVuSans-6b" x="149.365234"/>
     </g>
    </g>
   </g>
   <g id="matplotlib.axis_2">
    <g id="ytick_1">
     <g id="line2d_8">
      <defs>
       <path id="m4fd0462312" d="M 0 0 
L -3.5 0 
" style="stroke: #000000; stroke-width: 0.8"/>
      </defs>
      <g>
       <use xlink:href="#m4fd0462312" x="57.6" y="269.565713" style="stroke: #000000; stroke-width: 0.8"/>
      </g>
     </g>
     <g id="text_9">
      <!-- −0.015 -->
      <g transform="translate(13.592188 273.364931) scale(0.1 -0.1)">
       <defs>
        <path id="DejaVuSans-2212" d="M 678 2272 
L 4684 2272 
L 4684 1741 
L 678 1741 
L 678 2272 
z
" transform="scale(0.015625)"/>
        <path id="DejaVuSans-35" d="M 691 4666 
L 3169 4666 
L 3169 4134 
L 1269 4134 
L 1269 2991 
Q 1406 3038 1543 3061 
Q 1681 3084 1819 3084 
Q 2600 3084 3056 2656 
Q 3513 2228 3513 1497 
Q 3513 744 3044 326 
Q 2575 -91 1722 -91 
Q 1428 -91 1123 -41 
Q 819 9 494 109 
L 494 744 
Q 775 591 1075 516 
Q 1375 441 1709 441 
Q 2250 441 2565 725 
Q 2881 1009 2881 1497 
Q 2881 1984 2565 2268 
Q 2250 2553 1709 2553 
Q 1456 2553 1204 2497 
Q 953 2441 691 2322 
L 691 4666 
z
" transform="scale(0.015625)"/>
       </defs>
       <use xlink:href="#DejaVuSans-2212"/>
       <use xlink:href="#DejaVuSans-30" x="83.789062"/>
       <use xlink:href="#DejaVuSans-2e" x="147.412109"/>
       <use xlink:href="#DejaVuSans-30" x="179.199219"/>
       <use xlink:href="#DejaVuSans-31" x="242.822266"/>
       <use xlink:href="#DejaVuSans-35" x="306.445312"/>
      </g>
     </g>
    </g>
    <g id="ytick_2">
     <g id="line2d_9">
      <g>
       <use xlink:href="#m4fd0462312" x="57.6" y="225.562514" style="stroke: #000000; stroke-width: 0.8"/>
      </g>
     </g>
     <g id="text_10">
      <!-- −0.010 -->
      <g transform="translate(13.592188 229.361733) scale(0.1 -0.1)">
       <use xlink:href="#DejaVuSans-2212"/>
       <use xlink:href="#DejaVuSans-30" x="83.789062"/>
       <use xlink:href="#DejaVuSans-2e" x="147.412109"/>
       <use xlink:href="#DejaVuSans-30" x="179.199219"/>
       <use xlink:href="#DejaVuSans-31" x="242.822266"/>
       <use xlink:href="#DejaVuSans-30" x="306.445312"/>
      </g>
     </g>
    </g>
    <g id="ytick_3">
     <g id="line2d_10">
      <g>
       <use xlink:href="#m4fd0462312" x="57.6" y="181.559316" style="stroke: #000000; stroke-width: 0.8"/>
      </g>
     </g>
     <g id="text_11">
      <!-- −0.005 -->
      <g transform="translate(13.592188 185.358535) scale(0.1 -0.1)">
       <use xlink:href="#DejaVuSans-2212"/>
       <use xlink:href="#DejaVuSans-30" x="83.789062"/>
       <use xlink:href="#DejaVuSans-2e" x="147.412109"/>
       <use xlink:href="#DejaVuSans-30" x="179.199219"/>
       <use xlink:href="#DejaVuSans-30" x="242.822266"/>
       <use xlink:href="#DejaVuSans-35" x="306.445312"/>
      </g>
     </g>
    </g>
    <g id="ytick_4">
     <g id="line2d_11">
      <g>
       <use xlink:href="#m4fd0462312" x="57.6" y="137.556118" style="stroke: #000000; stroke-width: 0.8"/>
      </g>
     </g>
     <g id="text_12">
      <!-- 0.000 -->
      <g transform="translate(21.971875 141.355337) scale(0.1 -0.1)">
       <use xlink:href="#DejaVuSans-30"/>
       <use xlink:href="#DejaVuSans-2e" x="63.623047"/>
       <use xlink:href="#DejaVuSans-30" x="95.410156"/>
       <use xlink:href="#DejaVuSans-30" x="159.033203"/>
       <use xlink:href="#DejaVuSans-30" x="222.65625"/>
      </g>
     </g>
    </g>
    <g id="ytick_5">
     <g id="line2d_12">
      <g>
       <use xlink:href="#m4fd0462312" x="57.6" y="93.55292" style="stroke: #000000; stroke-width: 0.8"/>
      </g>
     </g>
     <g id="text_13">
      <!-- 0.005 -->
      <g transform="translate(21.971875 97.352139) scale(0.1 -0.1)">
       <use xlink:href="#DejaVuSans-30"/>
       <use xlink:href="#DejaVuSans-2e" x="63.623047"/>
       <use xlink:href="#DejaVuSans-30" x="95.410156"/>
       <use xlink:href="#DejaVuSans-30" x="159.033203"/>
       <use xlink:href="#DejaVuSans-35" x="222.65625"/>
      </g>
     </g>
    </g>
    <g id="ytick_6">
     <g id="line2d_13">
      <g>
       <use xlink:href="#m4fd0462312" x="57.6" y="49.549722" style="stroke: #000000; stroke-width: 0.8"/>
      </g>
     </g>
     <g id="text_14">
      <!-- 0.010 -->
      <g transform="translate(21.971875 53.348941) scale(0.1 -0.1)">
       <use xlink:href="#DejaVuSans-30"/>
       <use xlink:href="#DejaVuSans-2e" x="63.623047"/>
       <use xlink:href="#DejaVuSans-30" x="95.410156"/>
       <use xlink:href="#DejaVuSans-31" x="159.033203"/>
       <use xlink:href="#DejaVuSans-30" x="222.65625"/>
      </g>
     </g>
    </g>
    <g id="text_15">
     <!-- Expected Return -->
     <g transform="translate(7.5125 216.038156) rotate(-90) scale(0.1 -0.1)">
      <defs>
       <path id="DejaVuSans-45" d="M 628 4666 
L 3578 4666 
L 3578 4134 
L 1259 4134 
L 1259 2753 
L 3481 2753 
L 3481 2222 
L 1259 2222 
L 1259 531 
L 3634 531 
L 3634 0 
L 628 0 
L 628 4666 
z
" transform="scale(0.015625)"/>
       <path id="DejaVuSans-78" d="M 3513 3500 
L 2247 1797 
L 3578 0 
L 2900 0 
L 1881 1375 
L 863 0 
L 184 0 
L 1544 1831 
L 300 3500 
L 978 3500 
L 1906 2253 
L 2834 3500 
L 3513 3500 
z
" transform="scale(0.015625)"/>
       <path id="DejaVuSans-70" d="M 1159 525 
L 1159 -1331 
L 581 -1331 
L 581 3500 
L 1159 3500 
L 1159 2969 
Q 1341 3281 1617 3432 
Q 1894 3584 2278 3584 
Q 2916 3584 3314 3078 
Q 3713 2572 3713 1747 
Q 3713 922 3314 415 
Q 2916 -91 2278 -91 
Q 1894 -91 1617 61 
Q 1341 213 1159 525 
z
M 3116 1747 
Q 3116 2381 2855 2742 
Q 2594 3103 2138 3103 
Q 1681 3103 1420 2742 
Q 1159 2381 1159 1747 
Q 1159 1113 1420 752 
Q 1681 391 2138 391 
Q 2594 391 2855 752 
Q 3116 1113 3116 1747 
z
" transform="scale(0.015625)"/>
       <path id="DejaVuSans-65" d="M 3597 1894 
L 3597 1613 
L 953 1613 
Q 991 1019 1311 708 
Q 1631 397 2203 397 
Q 2534 397 2845 478 
Q 3156 559 3463 722 
L 3463 178 
Q 3153 47 2828 -22 
Q 2503 -91 2169 -91 
Q 1331 -91 842 396 
Q 353 884 353 1716 
Q 353 2575 817 3079 
Q 1281 3584 2069 3584 
Q 2775 3584 3186 3129 
Q 3597 2675 3597 1894 
z
M 3022 2063 
Q 3016 2534 2758 2815 
Q 2500 3097 2075 3097 
Q 1594 3097 1305 2825 
Q 1016 2553 972 2059 
L 3022 2063 
z
" transform="scale(0.015625)"/>
       <path id="DejaVuSans-63" d="M 3122 3366 
L 3122 2828 
Q 2878 2963 2633 3030 
Q 2388 3097 2138 3097 
Q 1578 3097 1268 2742 
Q 959 2388 959 1747 
Q 959 1106 1268 751 
Q 1578 397 2138 397 
Q 2388 397 2633 464 
Q 2878 531 3122 666 
L 3122 134 
Q 2881 22 2623 -34 
Q 2366 -91 2075 -91 
Q 1284 -91 818 406 
Q 353 903 353 1747 
Q 353 2603 823 3093 
Q 1294 3584 2113 3584 
Q 2378 3584 2631 3529 
Q 2884 3475 3122 3366 
z
" transform="scale(0.015625)"/>
       <path id="DejaVuSans-74" d="M 1172 4494 
L 1172 3500 
L 2356 3500 
L 2356 3053 
L 1172 3053 
L 1172 1153 
Q 1172 725 1289 603 
Q 1406 481 1766 481 
L 2356 481 
L 2356 0 
L 1766 0 
Q 1100 0 847 248 
Q 594 497 594 1153 
L 594 3053 
L 172 3053 
L 172 3500 
L 594 3500 
L 594 4494 
L 1172 4494 
z
" transform="scale(0.015625)"/>
       <path id="DejaVuSans-64" d="M 2906 2969 
L 2906 4863 
L 3481 4863 
L 3481 0 
L 2906 0 
L 2906 525 
Q 2725 213 2448 61 
Q 2172 -91 1784 -91 
Q 1150 -91 751 415 
Q 353 922 353 1747 
Q 353 2572 751 3078 
Q 1150 3584 1784 3584 
Q 2172 3584 2448 3432 
Q 2725 3281 2906 2969 
z
M 947 1747 
Q 947 1113 1208 752 
Q 1469 391 1925 391 
Q 2381 391 2643 752 
Q 2906 1113 2906 1747 
Q 2906 2381 2643 2742 
Q 2381 3103 1925 3103 
Q 1469 3103 1208 2742 
Q 947 2381 947 1747 
z
" transform="scale(0.015625)"/>
       <path id="DejaVuSans-20" transform="scale(0.015625)"/>
       <path id="DejaVuSans-75" d="M 544 1381 
L 544 3500 
L 1119 3500 
L 1119 1403 
Q 1119 906 1312 657 
Q 1506 409 1894 409 
Q 2359 409 2629 706 
Q 2900 1003 2900 1516 
L 2900 3500 
L 3475 3500 
L 3475 0 
L 2900 0 
L 2900 538 
Q 2691 219 2414 64 
Q 2138 -91 1772 -91 
Q 1169 -91 856 284 
Q 544 659 544 1381 
z
M 1991 3584 
L 1991 3584 
z
" transform="scale(0.015625)"/>
       <path id="DejaVuSans-72" d="M 2631 2963 
Q 2534 3019 2420 3045 
Q 2306 3072 2169 3072 
Q 1681 3072 1420 2755 
Q 1159 2438 1159 1844 
L 1159 0 
L 581 0 
L 581 3500 
L 1159 3500 
L 1159 2956 
Q 1341 3275 1631 3429 
Q 1922 3584 2338 3584 
Q 2397 3584 2469 3576 
Q 2541 3569 2628 3553 
L 2631 2963 
z
" transform="scale(0.015625)"/>
       <path id="DejaVuSans-6e" d="M 3513 2113 
L 3513 0 
L 2938 0 
L 2938 2094 
Q 2938 2591 2744 2837 
Q 2550 3084 2163 3084 
Q 1697 3084 1428 2787 
Q 1159 2491 1159 1978 
L 1159 0 
L 581 0 
L 581 3500 
L 1159 3500 
L 1159 2956 
Q 1366 3272 1645 3428 
Q 1925 3584 2291 3584 
Q 2894 3584 3203 3211 
Q 3513 2838 3513 2113 
z
" transform="scale(0.015625)"/>
      </defs>
      <use xlink:href="#DejaVuSans-45"/>
      <use xlink:href="#DejaVuSans-78" x="63.183594"/>
      <use xlink:href="#DejaVuSans-70" x="122.363281"/>
      <use xlink:href="#DejaVuSans-65" x="185.839844"/>
      <use xlink:href="#DejaVuSans-63" x="247.363281"/>
      <use xlink:href="#DejaVuSans-74" x="302.34375"/>
      <use xlink:href="#DejaVuSans-65" x="341.552734"/>
      <use xlink:href="#DejaVuSans-64" x="403.076172"/>
      <use xlink:href="#DejaVuSans-20" x="466.552734"/>
      <use xlink:href="#DejaVuSans-52" x="498.339844"/>
      <use xlink:href="#DejaVuSans-65" x="563.322266"/>
      <use xlink:href="#DejaVuSans-74" x="624.845703"/>
      <use xlink:href="#DejaVuSans-75" x="664.054688"/>
      <use xlink:href="#DejaVuSans-72" x="727.433594"/>
      <use xlink:href="#DejaVuSans-6e" x="766.796875"/>
     </g>
    </g>
   </g>
   <g id="line2d_14">
    <defs>
     <path id="m611c679aa1" d="M 0 3 
C 0.795609 3 1.55874 2.683901 2.12132 2.12132 
C 2.683901 1.55874 3 0.795609 3 0 
C 3 -0.795609 2.683901 -1.55874 2.12132 -2.12132 
C 1.55874 -2.683901 0.795609 -3 0 -3 
C -0.795609 -3 -1.55874 -2.683901 -2.12132 -2.12132 
C -2.683901 -1.55874 -3 -0.795609 -3 0 
C -3 0.795609 -2.683901 1.55874 -2.12132 2.12132 
C -1.55874 2.683901 -0.795609 3 0 3 
z
" style="stroke: #ff0000"/>
    </defs>
    <g clip-path="url(#p7fc7cc01cf)">
     <use xlink:href="#m611c679aa1" x="87.096491" y="129.637426" style="fill: #ff0000; stroke: #ff0000"/>
     <use xlink:href="#m611c679aa1" x="88.945286" y="133.329061" style="fill: #ff0000; stroke: #ff0000"/>
     <use xlink:href="#m611c679aa1" x="115.168561" y="161.056088" style="fill: #ff0000; stroke: #ff0000"/>
     <use xlink:href="#m611c679aa1" x="90.615406" y="136.544923" style="fill: #ff0000; stroke: #ff0000"/>
     <use xlink:href="#m611c679aa1" x="114.853925" y="197.156319" style="fill: #ff0000; stroke: #ff0000"/>
     <use xlink:href="#m611c679aa1" x="101.035711" y="167.370001" style="fill: #ff0000; stroke: #ff0000"/>
     <use xlink:href="#m611c679aa1" x="103.711951" y="192.150362" style="fill: #ff0000; stroke: #ff0000"/>
     <use xlink:href="#m611c679aa1" x="130.863774" y="190.103468" style="fill: #ff0000; stroke: #ff0000"/>
     <use xlink:href="#m611c679aa1" x="107.096074" y="217.832431" style="fill: #ff0000; stroke: #ff0000"/>
     <use xlink:href="#m611c679aa1" x="161.334008" y="168.663659" style="fill: #ff0000; stroke: #ff0000"/>
     <use xlink:href="#m611c679aa1" x="131.429219" y="132.105462" style="fill: #ff0000; stroke: #ff0000"/>
     <use xlink:href="#m611c679aa1" x="201.884671" y="200.419041" style="fill: #ff0000; stroke: #ff0000"/>
     <use xlink:href="#m611c679aa1" x="108.670625" y="201.626379" style="fill: #ff0000; stroke: #ff0000"/>
     <use xlink:href="#m611c679aa1" x="106.615168" y="197.952719" style="fill: #ff0000; stroke: #ff0000"/>
     <use xlink:href="#m611c679aa1" x="146.231242" y="195.77625" style="fill: #ff0000; stroke: #ff0000"/>
     <use xlink:href="#m611c679aa1" x="210.750754" y="124.997881" style="fill: #ff0000; stroke: #ff0000"/>
     <use xlink:href="#m611c679aa1" x="260.668842" y="295.488" style="fill: #ff0000; stroke: #ff0000"/>
     <use xlink:href="#m611c679aa1" x="98.894316" y="182.035494" style="fill: #ff0000; stroke: #ff0000"/>
     <use xlink:href="#m611c679aa1" x="109.186104" y="169.908139" style="fill: #ff0000; stroke: #ff0000"/>
     <use xlink:href="#m611c679aa1" x="73.832727" y="137.413883" style="fill: #ff0000; stroke: #ff0000"/>
     <use xlink:href="#m611c679aa1" x="188.625898" y="186.662376" style="fill: #ff0000; stroke: #ff0000"/>
     <use xlink:href="#m611c679aa1" x="167.865782" y="174.930654" style="fill: #ff0000; stroke: #ff0000"/>
     <use xlink:href="#m611c679aa1" x="133.015984" y="104.498203" style="fill: #ff0000; stroke: #ff0000"/>
     <use xlink:href="#m611c679aa1" x="142.710709" y="190.937758" style="fill: #ff0000; stroke: #ff0000"/>
     <use xlink:href="#m611c679aa1" x="122.744472" y="206.929841" style="fill: #ff0000; stroke: #ff0000"/>
     <use xlink:href="#m611c679aa1" x="153.597551" y="117.662745" style="fill: #ff0000; stroke: #ff0000"/>
     <use xlink:href="#m611c679aa1" x="120.383118" y="173.474622" style="fill: #ff0000; stroke: #ff0000"/>
     <use xlink:href="#m611c679aa1" x="264.367008" y="187.010339" style="fill: #ff0000; stroke: #ff0000"/>
     <use xlink:href="#m611c679aa1" x="102.838574" y="207.759763" style="fill: #ff0000; stroke: #ff0000"/>
     <use xlink:href="#m611c679aa1" x="141.402474" y="178.938265" style="fill: #ff0000; stroke: #ff0000"/>
     <use xlink:href="#m611c679aa1" x="123.548461" y="175.980761" style="fill: #ff0000; stroke: #ff0000"/>
     <use xlink:href="#m611c679aa1" x="129.28445" y="102.00741" style="fill: #ff0000; stroke: #ff0000"/>
     <use xlink:href="#m611c679aa1" x="126.802025" y="217.175572" style="fill: #ff0000; stroke: #ff0000"/>
     <use xlink:href="#m611c679aa1" x="126.400607" y="214.62993" style="fill: #ff0000; stroke: #ff0000"/>
     <use xlink:href="#m611c679aa1" x="120.711103" y="183.502394" style="fill: #ff0000; stroke: #ff0000"/>
     <use xlink:href="#m611c679aa1" x="132.319252" y="183.975283" style="fill: #ff0000; stroke: #ff0000"/>
     <use xlink:href="#m611c679aa1" x="126.090964" y="152.455992" style="fill: #ff0000; stroke: #ff0000"/>
     <use xlink:href="#m611c679aa1" x="109.710367" y="171.506756" style="fill: #ff0000; stroke: #ff0000"/>
     <use xlink:href="#m611c679aa1" x="127.811596" y="159.427331" style="fill: #ff0000; stroke: #ff0000"/>
     <use xlink:href="#m611c679aa1" x="114.846379" y="207.335072" style="fill: #ff0000; stroke: #ff0000"/>
     <use xlink:href="#m611c679aa1" x="113.838456" y="192.823706" style="fill: #ff0000; stroke: #ff0000"/>
     <use xlink:href="#m611c679aa1" x="398.487273" y="53.568" style="fill: #ff0000; stroke: #ff0000"/>
     <use xlink:href="#m611c679aa1" x="123.695243" y="183.528241" style="fill: #ff0000; stroke: #ff0000"/>
     <use xlink:href="#m611c679aa1" x="144.312357" y="156.999788" style="fill: #ff0000; stroke: #ff0000"/>
     <use xlink:href="#m611c679aa1" x="115.101672" y="186.985006" style="fill: #ff0000; stroke: #ff0000"/>
     <use xlink:href="#m611c679aa1" x="133.485644" y="241.472528" style="fill: #ff0000; stroke: #ff0000"/>
     <use xlink:href="#m611c679aa1" x="130.616483" y="198.512917" style="fill: #ff0000; stroke: #ff0000"/>
     <use xlink:href="#m611c679aa1" x="103.964085" y="163.109864" style="fill: #ff0000; stroke: #ff0000"/>
     <use xlink:href="#m611c679aa1" x="95.452743" y="166.950639" style="fill: #ff0000; stroke: #ff0000"/>
     <use xlink:href="#m611c679aa1" x="104.409216" y="182.058701" style="fill: #ff0000; stroke: #ff0000"/>
     <use xlink:href="#m611c679aa1" x="117.132495" y="202.207486" style="fill: #ff0000; stroke: #ff0000"/>
     <use xlink:href="#m611c679aa1" x="125.724989" y="180.922372" style="fill: #ff0000; stroke: #ff0000"/>
     <use xlink:href="#m611c679aa1" x="136.63418" y="197.041136" style="fill: #ff0000; stroke: #ff0000"/>
     <use xlink:href="#m611c679aa1" x="107.219351" y="174.269802" style="fill: #ff0000; stroke: #ff0000"/>
     <use xlink:href="#m611c679aa1" x="106.563438" y="174.469785" style="fill: #ff0000; stroke: #ff0000"/>
     <use xlink:href="#m611c679aa1" x="116.162785" y="171.414321" style="fill: #ff0000; stroke: #ff0000"/>
     <use xlink:href="#m611c679aa1" x="118.359031" y="162.781163" style="fill: #ff0000; stroke: #ff0000"/>
     <use xlink:href="#m611c679aa1" x="131.201046" y="204.180905" style="fill: #ff0000; stroke: #ff0000"/>
     <use xlink:href="#m611c679aa1" x="91.22043" y="169.316833" style="fill: #ff0000; stroke: #ff0000"/>
     <use xlink:href="#m611c679aa1" x="132.466306" y="173.175044" style="fill: #ff0000; stroke: #ff0000"/>
     <use xlink:href="#m611c679aa1" x="118.43675" y="206.404535" style="fill: #ff0000; stroke: #ff0000"/>
     <use xlink:href="#m611c679aa1" x="102.282364" y="166.797555" style="fill: #ff0000; stroke: #ff0000"/>
     <use xlink:href="#m611c679aa1" x="94.424632" y="171.563579" style="fill: #ff0000; stroke: #ff0000"/>
     <use xlink:href="#m611c679aa1" x="166.840967" y="175.887965" style="fill: #ff0000; stroke: #ff0000"/>
     <use xlink:href="#m611c679aa1" x="184.328644" y="85.233457" style="fill: #ff0000; stroke: #ff0000"/>
     <use xlink:href="#m611c679aa1" x="100.775918" y="168.270704" style="fill: #ff0000; stroke: #ff0000"/>
     <use xlink:href="#m611c679aa1" x="121.475561" y="194.326777" style="fill: #ff0000; stroke: #ff0000"/>
     <use xlink:href="#m611c679aa1" x="145.548359" y="173.597592" style="fill: #ff0000; stroke: #ff0000"/>
     <use xlink:href="#m611c679aa1" x="120.514087" y="180.271858" style="fill: #ff0000; stroke: #ff0000"/>
     <use xlink:href="#m611c679aa1" x="111.796423" y="177.46226" style="fill: #ff0000; stroke: #ff0000"/>
     <use xlink:href="#m611c679aa1" x="106.945044" y="179.465314" style="fill: #ff0000; stroke: #ff0000"/>
     <use xlink:href="#m611c679aa1" x="120.238723" y="164.129298" style="fill: #ff0000; stroke: #ff0000"/>
     <use xlink:href="#m611c679aa1" x="106.448989" y="182.376647" style="fill: #ff0000; stroke: #ff0000"/>
     <use xlink:href="#m611c679aa1" x="149.885132" y="151.966924" style="fill: #ff0000; stroke: #ff0000"/>
     <use xlink:href="#m611c679aa1" x="164.671707" y="149.043505" style="fill: #ff0000; stroke: #ff0000"/>
     <use xlink:href="#m611c679aa1" x="121.122569" y="196.538602" style="fill: #ff0000; stroke: #ff0000"/>
     <use xlink:href="#m611c679aa1" x="92.465854" y="158.786703" style="fill: #ff0000; stroke: #ff0000"/>
     <use xlink:href="#m611c679aa1" x="139.135176" y="150.141358" style="fill: #ff0000; stroke: #ff0000"/>
     <use xlink:href="#m611c679aa1" x="110.382075" y="181.619623" style="fill: #ff0000; stroke: #ff0000"/>
     <use xlink:href="#m611c679aa1" x="135.143875" y="172.182533" style="fill: #ff0000; stroke: #ff0000"/>
     <use xlink:href="#m611c679aa1" x="130.609581" y="197.207986" style="fill: #ff0000; stroke: #ff0000"/>
     <use xlink:href="#m611c679aa1" x="127.12271" y="172.239399" style="fill: #ff0000; stroke: #ff0000"/>
     <use xlink:href="#m611c679aa1" x="150.844762" y="62.635625" style="fill: #ff0000; stroke: #ff0000"/>
     <use xlink:href="#m611c679aa1" x="176.97224" y="219.957374" style="fill: #ff0000; stroke: #ff0000"/>
     <use xlink:href="#m611c679aa1" x="91.566876" y="177.033282" style="fill: #ff0000; stroke: #ff0000"/>
     <use xlink:href="#m611c679aa1" x="161.502199" y="237.714691" style="fill: #ff0000; stroke: #ff0000"/>
     <use xlink:href="#m611c679aa1" x="131.62003" y="166.430717" style="fill: #ff0000; stroke: #ff0000"/>
     <use xlink:href="#m611c679aa1" x="113.218259" y="159.910799" style="fill: #ff0000; stroke: #ff0000"/>
     <use xlink:href="#m611c679aa1" x="124.765582" y="201.304568" style="fill: #ff0000; stroke: #ff0000"/>
     <use xlink:href="#m611c679aa1" x="119.56049" y="192.602028" style="fill: #ff0000; stroke: #ff0000"/>
     <use xlink:href="#m611c679aa1" x="106.268675" y="170.426869" style="fill: #ff0000; stroke: #ff0000"/>
     <use xlink:href="#m611c679aa1" x="116.469018" y="123.236224" style="fill: #ff0000; stroke: #ff0000"/>
     <use xlink:href="#m611c679aa1" x="105.614743" y="184.939033" style="fill: #ff0000; stroke: #ff0000"/>
     <use xlink:href="#m611c679aa1" x="146.84699" y="150.013678" style="fill: #ff0000; stroke: #ff0000"/>
     <use xlink:href="#m611c679aa1" x="89.291951" y="178.09877" style="fill: #ff0000; stroke: #ff0000"/>
     <use xlink:href="#m611c679aa1" x="128.038915" y="195.094125" style="fill: #ff0000; stroke: #ff0000"/>
     <use xlink:href="#m611c679aa1" x="114.028875" y="167.50823" style="fill: #ff0000; stroke: #ff0000"/>
    </g>
   </g>
   <g id="patch_3">
    <path d="M 57.6 307.584 
L 57.6 41.472 
" style="fill: none; stroke: #000000; stroke-width: 0.8; stroke-linejoin: miter; stroke-linecap: square"/>
   </g>
   <g id="patch_4">
    <path d="M 414.72 307.584 
L 414.72 41.472 
" style="fill: none; stroke: #000000; stroke-width: 0.8; stroke-linejoin: miter; stroke-linecap: square"/>
   </g>
   <g id="patch_5">
    <path d="M 57.6 307.584 
L 414.72 307.584 
" style="fill: none; stroke: #000000; stroke-width: 0.8; stroke-linejoin: miter; stroke-linecap: square"/>
   </g>
   <g id="patch_6">
    <path d="M 57.6 41.472 
L 414.72 41.472 
" style="fill: none; stroke: #000000; stroke-width: 0.8; stroke-linejoin: miter; stroke-linecap: square"/>
   </g>
  </g>
 </g>
 <defs>
  <clipPath id="p7fc7cc01cf">
   <rect x="57.6" y="41.472" width="357.12" height="266.112"/>
  </clipPath>
 </defs>
</svg>
